<svg id="Layer_1" data-name="Layer 1" xmlns="http://www.w3.org/2000/svg" viewBox="0 0 304 304"><defs><style>.cls-1{fill:#2b2e3a;}.cls-2{fill:#9feaf9;}</style></defs><circle class="cls-1" cx="151" cy="155" r="128"/><path class="cls-2" d="M123.5,98.69c-26-4.74-46.57.22-54.76,14.42-6.11,10.59-4.37,24.63,4.24,39.64a2.66,2.66,0,1,0,4.68-2.55l0-.1c-7.76-13.52-9.27-25.64-4.25-34.33,6.81-11.79,25.15-16.21,49.19-11.83a2.67,2.67,0,0,0,1-5.25ZM86.5,171c10.52,11.55,24.18,22.39,39.76,31.39,37.72,21.78,77.88,27.6,97.67,14.1A2.67,2.67,0,0,0,221,212l-.08.06c-17.72,12.07-55.86,6.54-92-14.32-15.12-8.73-28.35-19.22-38.48-30.36a2.67,2.67,0,1,0-4,3.57Z"/><path class="cls-2" d="M217.62,167.75c17-20.11,23-40.34,14.79-54.51-6-10.42-18.73-15.92-35.64-16.14a2.67,2.67,0,0,0-.07,5.33c15.21.2,26.17,4.94,31.1,13.48,6.79,11.76,1.49,29.81-14.25,48.4a2.67,2.67,0,0,0,4,3.49ZM173.86,99.58c-15.4,3.3-31.79,9.75-47.52,18.83C87.39,140.9,62,174.05,65.52,198.09a2.67,2.67,0,1,0,5.29-.71v-.07C67.66,176,91.74,144.54,129,123c15.27-8.81,31.14-15.06,46-18.24a2.67,2.67,0,1,0-1-5.23l-.08,0Z"/><path class="cls-2" d="M110.77,214.75c8.9,24.86,23.47,40.17,39.85,40.17,11.94,0,23-8.14,31.61-22.48a2.67,2.67,0,0,0-4.53-2.81l0,.06c-7.74,12.89-17.26,19.9-27,19.9-13.61,0-26.6-13.66-34.83-36.63a2.67,2.67,0,1,0-5.06,1.69.42.42,0,0,1,0,.1Zm81.32-4.86a167.41,167.41,0,0,0,7.09-49.42c0-44.18-15.47-82.27-37.49-92a2.67,2.67,0,0,0-2.16,4.88c19.64,8.72,34.31,44.86,34.31,87.17A162,162,0,0,1,187,208.3a2.67,2.67,0,0,0,5.07,1.66.19.19,0,0,0,0-.07Zm50.23-2.61A12.77,12.77,0,1,0,229.55,220,12.77,12.77,0,0,0,242.32,207.28Zm-5.34,0a7.43,7.43,0,1,1-7.43-7.43A7.43,7.43,0,0,1,237,207.28ZM71.5,220a12.77,12.77,0,1,0-12.77-12.76A12.76,12.76,0,0,0,71.5,220Zm0-5.33a7.43,7.43,0,1,1,7.43-7.43A7.43,7.43,0,0,1,71.5,214.71Z"/><path class="cls-2" d="M150.62,81.44a12.76,12.76,0,1,0-12.77-12.76A12.76,12.76,0,0,0,150.62,81.44Zm0-5.33a7.43,7.43,0,1,1,7.43-7.43A7.43,7.43,0,0,1,150.62,76.11Zm1.95,93.38a9.23,9.23,0,1,1,7.07-11A9.23,9.23,0,0,1,152.57,169.49Z"/></svg>