<svg id="Layer_1" data-name="Layer 1" xmlns="http://www.w3.org/2000/svg" viewBox="0 0 346 346"><path d="M167,72.51c-14.09,9.92-30.07,21.15-38.62,39.74-14.87,32.42,30.41,67.79,32.35,69.29a2.53,2.53,0,0,0,1.52.51,2.49,2.49,0,0,0,2.22-3.65c-.16-.31-16.42-31.89-15.81-54.54.21-7.88,11.25-16.83,22.94-26.31,10.71-8.68,22.84-18.51,29.94-30,15.59-25.33-1.74-50.23-1.91-50.48a2.5,2.5,0,0,0-4.49,2,53.1,53.1,0,0,1-6,33.6C185.3,59.63,176.82,65.6,167,72.51Z"/><path d="M226.37,83.68a2.5,2.5,0,0,0-2.4-4.33c-2.39.91-58.62,22.58-58.62,48.77,0,18.06,7.71,27.59,13.34,34.56,2.21,2.73,4.11,5.09,4.74,7.1,1.77,5.81-2.42,16.3-4.18,19.85a2.49,2.49,0,0,0,3.66,3.16c1-.67,23.63-16.69,19.57-36-1.51-7.33-5.12-12.7-8.3-17.43-4.93-7.33-8.49-12.62-3.09-22.4C197.42,105.56,226.08,83.9,226.37,83.68Z"/><path d="M80,193.66a8.86,8.86,0,0,0,1.32,8.28c6.09,8.46,27.68,13.13,60.8,13.13h0c4.49,0,9.22-.09,14.08-.27,52.94-1.89,72.58-18.39,73.39-19.09a2.5,2.5,0,0,0-2.3-4.3c-18.64,5.09-53.46,6.9-77.61,6.9-27,0-40.78-1.95-44.15-3.38,1.73-2.38,12.39-6.62,25.6-9.22a2.5,2.5,0,0,0-.48-5C122.89,180.76,84.05,181.38,80,193.66Z"/><path d="M257.15,176.67c-10.92,0-21.28,5.48-21.71,5.71a2.5,2.5,0,0,0,1.18,4.7c.23,0,23.29.19,25.38,13.37,1.85,11.36-21.82,29.78-31.1,35.92a2.5,2.5,0,0,0,1.38,4.59,2.31,2.31,0,0,0,.52-.06c2.2-.47,53.86-11.85,48.39-41.93C277.86,180.54,266.28,176.67,257.15,176.67Z"/><path d="M221.73,232.69a2.54,2.54,0,0,0-1-2.51l-12.38-8.67a2.52,2.52,0,0,0-2.08-.37,242.05,242.05,0,0,1-31.88,5.53A223.28,223.28,0,0,1,150.18,228c-18.8,0-31.09-2.21-32.88-3.83-.24-.46-.16-.66-.12-.78.33-.9,2.07-2,3.19-2.4a2.5,2.5,0,0,0-1.45-4.78c-12.43,3-18.5,7.19-18.06,12.46.79,9.34,22.43,14.14,40.73,15.41,2.63.18,5.47.27,8.45.27h0c30.42,0,69.43-9.54,69.82-9.64A2.53,2.53,0,0,0,221.73,232.69Z"/><path d="M128.35,252.74a2.49,2.49,0,0,0,1-2.83,2.52,2.52,0,0,0-2.45-1.76c-1.67,0-16.29.71-17.32,10a9.68,9.68,0,0,0,2.37,7.55c5.25,6.23,19.43,9.93,43.33,11.32,2.83.16,5.7.25,8.54.25,30.39,0,50.86-9.52,51.72-9.92a2.49,2.49,0,0,0,.23-4.39l-15.65-9.56a2.5,2.5,0,0,0-1.81-.31c-.1,0-10,2.08-25,4.12a81.8,81.8,0,0,1-10.56.58c-15,0-31.65-2.45-34.84-4.05A1,1,0,0,1,128.35,252.74Z"/><path d="M149.68,306c69.61-.06,107-12.44,114.17-20.23a8.65,8.65,0,0,0,2.61-7.07c-.54-4.19-4.36-6.76-4.79-7a2.52,2.52,0,0,0-3.26.44,2.47,2.47,0,0,0,0,3.26c.44.56.69,1.51-.59,2.79-2.88,2.69-31.9,10.85-80.22,13.3C171,291.81,164,292,157,292c-43.26,0-74.92-5.93-79.08-9.38,1.6-2.3,12.8-6,24.71-8.06a2.5,2.5,0,0,0-.76-4.94c-.34,0-1.48.11-2.8.19-19.65,1.2-42.36,3.88-43.54,14a10.31,10.31,0,0,0,2.72,8.33c5.31,6,20.57,13.89,91.48,13.89Z"/><path d="M277.52,288a2.51,2.51,0,0,0-2.88.57c-.1.11-10.57,11.06-42,17.48-12.05,2.42-34.66,3.64-67.22,3.64s-63.64-1.28-63.95-1.3a2.5,2.5,0,0,0-.68,4.93c.32.08,32.84,7.7,77.31,7.7a360.14,360.14,0,0,0,61.68-5.15c36.55-6.41,39.11-24.53,39.2-25.3A2.51,2.51,0,0,0,277.52,288Z"/></svg>