<svg id="Layer_1" data-name="Layer 1" xmlns="http://www.w3.org/2000/svg" viewBox="0 0 3121.55 3121.55"><defs><style>.cls-1{fill:#f7df1e;}</style></defs><path class="cls-1" d="M291.41,291.41h2500v2500h-2500Z"/><path d="M948.76,2380.59l191.31-115.78c36.91,65.44,70.48,120.81,151,120.81,77.2,0,125.88-30.19,125.88-147.65V1439.16H1651.9v802.13c0,243.33-142.63,354.09-350.74,354.09-187.94,0-297-97.34-352.41-214.81m830.76-25.15,191.29-110.75c50.36,82.23,115.81,142.64,231.59,142.64,97.35,0,159.42-48.67,159.42-115.8,0-80.55-63.77-109.08-171.17-156.05l-58.72-25.2C1962.42,2018.12,1850,1927.5,1850,1736.19c0-176.21,134.25-310.47,344-310.47,149.36,0,256.76,52,333.95,188L2345,1731.16c-40.29-72.16-83.9-100.68-151-100.68-68.81,0-112.44,43.63-112.44,100.68,0,70.48,43.63,99,144.32,142.66l58.73,25.16c199.7,85.6,312.14,172.85,312.14,369.18,0,211.47-166.14,327.25-389.33,327.25-218.15,0-359.12-104-427.92-240"/></svg>