<svg id="Layer_1" data-name="Layer 1" xmlns="http://www.w3.org/2000/svg" viewBox="0 0 15 15"><defs><style>.cls-1{fill:#2a2a2a;}.cls-2{fill:#e20000;}</style></defs><path class="cls-1" d="M3.69,8.75v.92c0,.16,3.36.42,5.55.92,1-.24,1.84-.54,1.84-.92V8.75c0-.38-.79-.68-1.84-.93-2.19.51-5.55.77-5.55.93"/><path class="cls-1" d="M3.69,5.05V6c0,.15,3.36.41,5.55.92,1-.24,1.84-.55,1.84-.92V5.05c0-.37-.79-.67-1.84-.92-2.19.51-5.55.77-5.55.92"/><path class="cls-2" d="M3.69,6.9V9.67c0-.23,7.39-.69,7.39-1.85V5.05c0,1.16-7.39,1.62-7.39,1.85"/><path class="cls-2" d="M3.69,3.21V6c0-.23,7.39-.69,7.39-1.85V1.36c0,1.16-7.39,1.62-7.39,1.85"/><path class="cls-2" d="M3.69,10.59v2.77c0-.23,7.39-.69,7.39-1.84V8.75c0,1.15-7.39,1.61-7.39,1.84"/></svg>