<svg id="Layer_1" data-name="Layer 1" xmlns="http://www.w3.org/2000/svg" viewBox="0 0 118 135"><defs><style>.cls-1{fill:#aba8bb;}.cls-2{fill:none;stroke:#aba8bb;stroke-linecap:round;stroke-linejoin:round;stroke-width:3px;}</style></defs><path class="cls-1" d="M12,61c4.34,0,8,5,8,11s-3.66,11-8,11S4,78,4,72s3.66-11,8-11m0-3C5.92,58,1,64.27,1,72S5.92,86,12,86s11-6.27,11-14S18.08,58,12,58Z"/><path class="cls-2" d="M24.5,58.5a26.63,26.63,0,0,0-3,12c0,7.07,1,11,3,13a5.29,5.29,0,0,0,3.8,1.25,4.89,4.89,0,0,0,3.4-1.45l.8-.8"/><path class="cls-1" d="M68,62c4.34,0,8,5,8,11s-3.66,11-8,11-8-5-8-11,3.66-11,8-11m0-3c-6.08,0-11,6.27-11,14s4.92,14,11,14,11-6.27,11-14S74.08,59,68,59Z"/><path class="cls-2" d="M80.5,59.5a26.63,26.63,0,0,0-3,12c0,7.07,1,11,3,13a5.29,5.29,0,0,0,3.8,1.25,4.89,4.89,0,0,0,3.4-1.45l.8-.8"/><path class="cls-2" d="M40.5,33.5v37a20.94,20.94,0,0,0,0,3c.19,2.73.5,7.16,3,9s7.06,1,11-2"/><path class="cls-2" d="M28.46,49.06l26.08-2.12"/></svg>