<svg id="Layer_1" data-name="Layer 1" xmlns="http://www.w3.org/2000/svg" viewBox="0 0 40 135"><defs><style>.cls-1{fill:none;stroke:#aba8bb;stroke-linecap:round;stroke-linejoin:round;stroke-width:3px;}</style></defs><path class="cls-1" d="M16.87,86.89A23.31,23.31,0,0,1,5.5,77.8C1.33,71.13,1.32,62.61,3.22,61.87s6.07,4.55,9.1,6.07c1.52-2.27,2.18-3.38,5.31-4.55a8.73,8.73,0,0,1,6.82,0c3-3.79,4.43-8.48,6.07-8.34.94.09,3,4.21,3.56,5.36,1.65,3.31,3.08,7.07,2.7,10.83-.5,5.09-3.64,9.71-7,13.38.51.56,6.81,7.67,4.55,16.68-1.89,7.55-9,13.2-17.44,13.65"/></svg>