<svg id="Layer_1" data-name="Layer 1" xmlns="http://www.w3.org/2000/svg" viewBox="0 0 63 135"><defs><style>.cls-1{fill:#aba8bb;}.cls-2{fill:none;stroke:#aba8bb;stroke-linecap:round;stroke-linejoin:round;stroke-width:3px;}</style></defs><path class="cls-1" d="M41,61c4.34,0,8,5,8,11s-3.66,11-8,11-8-5-8-11,3.66-11,8-11m0-3c-6.08,0-11,6.27-11,14s4.92,14,11,14,11-6.27,11-14S47.08,58,41,58Z"/><path class="cls-2" d="M53.5,58.5a26.63,26.63,0,0,0-3,12c0,7.07,1,11,3,13a5.29,5.29,0,0,0,3.8,1.25,4.89,4.89,0,0,0,3.4-1.45l.8-.8"/></svg>